<?xml version="1.0" encoding="UTF-8"?>
<svg id="Layer_1" data-name="Layer 1" xmlns="http://www.w3.org/2000/svg" width="15.5" height="15.5" viewBox="0 0 15.5 15.5">
  <circle cx="7.7" cy="7.7" r="7.7" fill="#f7b1bd" stroke-width="0"/>
  <g>
    <ellipse cx="7.5" cy="8.8" rx="5.5" ry="5.6" fill="#fff" stroke-width="0"/>
    <path d="m8.7,9.8c0,0,.4-.6,1.1-.7.5,0,1.1.3,1.3.7" fill="none" stroke="#f7b1bd" stroke-miterlimit="10" stroke-width=".5"/>
    <path d="m4,9.8c0,0,.4-.6,1.1-.7.5,0,1.1.3,1.3.7" fill="none" stroke="#f7b1bd" stroke-miterlimit="10" stroke-width=".5"/>
    <path d="m6,11.4c.3.8,1.1,1.2,1.9,1.1.7-.1,1.2-.6,1.4-1.3" fill="none" stroke="#f7b1bd" stroke-miterlimit="10" stroke-width=".5"/>
    <path d="m9.9,2.9c-.2.7-.9,2.4-2.7,3.8-2.4,1.8-5.1,1.6-5.7,1.5" fill="none" stroke="#f7b1bd" stroke-miterlimit="10" stroke-width=".5"/>
    <path d="m7.9,6.1c.2.2,1.5,1.3,3.2,1.2.9,0,1.6-.5,1.9-.7" fill="none" stroke="#f7b1bd" stroke-miterlimit="10" stroke-width=".5"/>
    <circle cx="3.1" cy="3.5" r=".9" fill="#fff" stroke-width="0"/>
    <circle cx="12.1" cy="3.5" r=".9" fill="#fff" stroke-width="0"/>
  </g>
</svg>